# xmcd
#
# Track frame offsets: 
#        188
#        19188
#        32513
#        63948
#        93403
#        115813
#        133605
#
# Disc length: 2397 seconds
#
# Revision: 4
# Processed by: cddbd v1.5.2PL0 Copyright (c) Steve Scherf et al.
# Submitted via: ExactAudioCopy v1.0b3
#
DISCID=52095b07
DTITLE=John Lee Hooker - Never Get Out Of These Blues Alive
DYEAR=1972
DGENRE=Blues
TTITLE0=Bumblebee, Bumblebee
TTITLE1=Hit The Road
TTITLE2=Country Boy
TTITLE3=Boogie With The Hook
TTITLE4=T.B. Sheets
TTITLE5=Letter To My Baby
TTITLE6=Never Get Out Of These Blues Alive
EXTD=YEAR: 1972
EXTT0=
EXTT1=
EXTT2=
EXTT3=
EXTT4=
EXTT5=
EXTT6=
PLAYORDER=
